<svg width="20" height="20" viewBox="0 0 20 20" fill="none" xmlns="http://www.w3.org/2000/svg">
<g clip-path="url(#clip0_16_121)">
<path d="M2.69375 1.125H6.68125C7.54765 1.125 8.25 1.82735 8.25 2.69375V6.68125C8.25 7.54765 7.54765 8.25 6.68125 8.25H2.69375C1.82735 8.25 1.125 7.54765 1.125 6.68125V2.69375C1.125 1.82735 1.82735 1.125 2.69375 1.125Z" fill="#43AC87" stroke="#2F756C"/>
<path d="M13.3187 1.125H17.3063C18.1726 1.125 18.875 1.82735 18.875 2.69375V6.68125C18.875 7.54765 18.1726 8.25 17.3063 8.25H13.3187C12.4524 8.25 11.75 7.54765 11.75 6.68125V2.69375C11.75 1.82735 12.4524 1.125 13.3187 1.125Z" fill="#43AC87" stroke="#2F756C"/>
<path d="M2.69375 11.75H6.68125C7.54765 11.75 8.25 12.4524 8.25 13.3187V17.3063C8.25 18.1726 7.54765 18.875 6.68125 18.875H2.69375C1.82735 18.875 1.125 18.1726 1.125 17.3063V13.3187C1.125 12.4524 1.82735 11.75 2.69375 11.75Z" fill="#43AC87" stroke="#2F756C"/>
<path d="M18.875 15.3125C18.875 17.28 17.28 18.875 15.3125 18.875C13.345 18.875 11.75 17.28 11.75 15.3125C11.75 13.345 13.345 11.75 15.3125 11.75C17.28 11.75 18.875 13.345 18.875 15.3125Z" fill="#43AC87" stroke="#2F756C"/>
</g>
<defs>
<clipPath id="clip0_16_121">
<rect width="20" height="20" fill="white"/>
</clipPath>
</defs>
</svg>
