<svg width="40" height="40" viewBox="0 0 40 40" fill="none" xmlns="http://www.w3.org/2000/svg">
<path fill-rule="evenodd" clip-rule="evenodd" d="M19.9999 2.08331C10.1048 2.08331 2.08325 10.1049 2.08325 20C2.08325 29.8951 10.1048 37.9166 19.9999 37.9166C29.8951 37.9166 37.9166 29.8951 37.9166 20C37.9166 10.1049 29.8951 2.08331 19.9999 2.08331ZM19.9858 10.4166C16.9926 10.4166 14.5632 12.8401 14.5632 15.8333C14.5632 18.8265 16.9926 21.25 19.9858 21.25C22.9789 21.25 25.4084 18.8265 25.4084 15.8333C25.4084 12.8401 22.9789 10.4166 19.9858 10.4166ZM19.9999 23.75C16.4235 23.75 13.1745 25.1526 10.8009 27.4316C10.5554 27.6673 10.4166 27.993 10.4166 28.3333C10.4166 28.6736 10.5554 28.9993 10.8009 29.235C13.1745 31.514 16.4235 32.9166 19.9999 32.9166C23.5763 32.9166 26.8254 31.514 29.1989 29.235C29.4444 28.9993 29.5833 28.6736 29.5833 28.3333C29.5833 27.993 29.4444 27.6673 29.1989 27.4316C26.8254 25.1526 23.5763 23.75 19.9999 23.75Z" fill="#6D7080"/>
</svg>
