<svg width="22" height="28" viewBox="0 0 22 28" fill="none" xmlns="http://www.w3.org/2000/svg">
<path fill-rule="evenodd" clip-rule="evenodd" d="M22.0001 19.9622V4.35855V4.19588V4.14166C22.0001 4.04067 21.9571 4.02385 21.802 3.87239L17.9677 0.215045C17.7863 0.0430089 17.7564 0 17.6499 0H17.3881H1.75733C1.56478 0 1.40771 0.157062 1.40771 0.349678V25.6109C1.40771 25.8035 1.56478 25.9624 1.75733 25.9624H21.6505C21.8431 25.9624 22.0001 25.8035 22.0001 25.6109V19.9622Z" fill="#EDF3F4"/>
<path fill-rule="evenodd" clip-rule="evenodd" d="M1.4077 3.35071L0 3.59194V26.903C0 27.0974 0.157062 27.2545 0.349615 27.2545H5.93H9.25023L14.5184 26.3514L16.7861 25.9624H15.599H14.1389H7.3377H1.75731C1.56476 25.9624 1.4077 25.8035 1.4077 25.6109C1.4077 18.1914 1.4077 10.7701 1.4077 3.35071Z" fill="#B5C4CF"/>
<path d="M18.8403 7.6464H4.76498C4.4931 7.6464 4.27271 7.42594 4.27271 7.15394C4.27271 6.88193 4.4931 6.66147 4.76498 6.66147H18.8403C19.1122 6.66147 19.3326 6.88193 19.3326 7.15394C19.3326 7.42594 19.1122 7.6464 18.8403 7.6464Z" fill="#9AAFB7"/>
<path d="M18.8403 11.1448H4.76498C4.4931 11.1448 4.27271 10.9243 4.27271 10.6523C4.27271 10.3803 4.4931 10.1599 4.76498 10.1599H18.8403C19.1122 10.1599 19.3326 10.3803 19.3326 10.6523C19.3326 10.9243 19.1122 11.1448 18.8403 11.1448Z" fill="#9AAFB7"/>
<path d="M18.8403 14.6432H4.76498C4.4931 14.6432 4.27271 14.4227 4.27271 14.1507C4.27271 13.8787 4.4931 13.6583 4.76498 13.6583H18.8403C19.1122 13.6583 19.3326 13.8787 19.3326 14.1507C19.3326 14.4227 19.1122 14.6432 18.8403 14.6432Z" fill="#9AAFB7"/>
<path d="M18.8403 18.1417H4.76498C4.4931 18.1417 4.27271 17.9212 4.27271 17.6492C4.27271 17.3772 4.4931 17.1567 4.76498 17.1567H18.8403C19.1122 17.1567 19.3326 17.3772 19.3326 17.6492C19.3326 17.9212 19.1122 18.1417 18.8403 18.1417Z" fill="#9AAFB7"/>
<path d="M18.8403 21.6401H4.76498C4.4931 21.6401 4.27271 21.4197 4.27271 21.1476C4.27271 20.8756 4.4931 20.6552 4.76498 20.6552H18.8403C19.1122 20.6552 19.3326 20.8756 19.3326 21.1476C19.3326 21.4197 19.1122 21.6401 18.8403 21.6401Z" fill="#9AAFB7"/>
</svg>
