<svg width="20" height="20" viewBox="0 0 20 20" fill="none" xmlns="http://www.w3.org/2000/svg">
<path d="M10.3877 1.09692L10.3877 1.09694L19.361 9.27338C19.361 9.27339 19.361 9.2734 19.361 9.27341C19.5392 9.43579 19.5972 9.68209 19.5102 9.90698C19.4231 10.1316 19.2144 10.2745 18.9735 10.2745H17.54H17.09V10.7245V18.9167C17.09 18.993 17.0281 19.0549 16.9518 19.0549H12.0336C11.9573 19.0549 11.8954 18.993 11.8954 18.9167V13.9426V13.4926H11.4454H8.55471H8.10471V13.9426V18.9167C8.10471 18.993 8.04284 19.0548 7.96655 19.0548H3.04804C2.97177 19.0548 2.90988 18.9929 2.90988 18.9167V10.7245V10.2745H2.45988H1.02668C0.785652 10.2745 0.576974 10.1315 0.489905 9.90678C0.402861 9.68203 0.460811 9.43577 0.638947 9.27345L9.61233 1.0969L9.61238 1.09685C9.83431 0.894566 10.1655 0.89449 10.3877 1.09692Z" fill="#94C5D4" stroke="#6D7080" stroke-width="0.9"/>
<path d="M14.6002 2.11913H17.3864C17.4627 2.11913 17.5245 2.18099 17.5245 2.25725V4.77814L14.6002 2.11913Z" fill="#94C5D4" stroke="#6D7080" stroke-width="0.9"/>
</svg>
