<svg width="20" height="20" viewBox="0 0 20 20" fill="none" xmlns="http://www.w3.org/2000/svg">
<mask id="path-1-inside-1_16_79" fill="white">
<path d="M12.5 14.375V17.1875C12.5 17.6019 12.3354 17.9993 12.0424 18.2924C11.7493 18.5854 11.3519 18.75 10.9375 18.75H2.8125C2.3981 18.75 2.00067 18.5854 1.70765 18.2924C1.41462 17.9993 1.25 17.6019 1.25 17.1875V2.8125C1.25 2.3981 1.41462 2.00067 1.70765 1.70765C2.00067 1.41462 2.3981 1.25 2.8125 1.25H10.9375C11.3519 1.25 11.7493 1.41462 12.0424 1.70765C12.3354 2.00067 12.5 2.3981 12.5 2.8125V5.625C12.5 5.79076 12.4342 5.94973 12.3169 6.06694C12.1997 6.18415 12.0408 6.25 11.875 6.25C11.7092 6.25 11.5503 6.18415 11.4331 6.06694C11.3158 5.94973 11.25 5.79076 11.25 5.625V2.8125C11.25 2.72962 11.2171 2.65013 11.1585 2.59153C11.0999 2.53292 11.0204 2.5 10.9375 2.5H2.8125C2.72962 2.5 2.65013 2.53292 2.59153 2.59153C2.53292 2.65013 2.5 2.72962 2.5 2.8125V17.1875C2.5 17.2704 2.53292 17.3499 2.59153 17.4085C2.65013 17.4671 2.72962 17.5 2.8125 17.5H10.9375C11.0204 17.5 11.0999 17.4671 11.1585 17.4085C11.2171 17.3499 11.25 17.2704 11.25 17.1875V14.375C11.25 14.2092 11.3158 14.0503 11.4331 13.9331C11.5503 13.8158 11.7092 13.75 11.875 13.75C12.0408 13.75 12.1997 13.8158 12.3169 13.9331C12.4342 14.0503 12.5 14.2092 12.5 14.375ZM18.5687 9.55625L15.475 6.4625C15.3573 6.34481 15.1977 6.27869 15.0312 6.27869C14.8648 6.27869 14.7052 6.34481 14.5875 6.4625C14.4698 6.58019 14.4037 6.73981 14.4037 6.90625C14.4037 7.07269 14.4698 7.23231 14.5875 7.35L16.6187 9.375H5.95C5.78424 9.375 5.62527 9.44085 5.50806 9.55806C5.39085 9.67527 5.325 9.83424 5.325 10C5.325 10.1658 5.39085 10.3247 5.50806 10.4419C5.62527 10.5592 5.78424 10.625 5.95 10.625H16.6187L14.5875 12.65C14.5289 12.7081 14.4824 12.7772 14.4507 12.8534C14.419 12.9296 14.4026 13.0112 14.4026 13.0938C14.4026 13.1763 14.419 13.2579 14.4507 13.3341C14.4824 13.4103 14.5289 13.4794 14.5875 13.5375C14.6456 13.5961 14.7147 13.6426 14.7909 13.6743C14.8671 13.706 14.9487 13.7224 15.0312 13.7224C15.1138 13.7224 15.1954 13.706 15.2716 13.6743C15.3478 13.6426 15.4169 13.5961 15.475 13.5375L18.5687 10.4437C18.6273 10.3856 18.6738 10.3165 18.7056 10.2404C18.7373 10.1642 18.7536 10.0825 18.7536 10C18.7536 9.91749 18.7373 9.8358 18.7056 9.75964C18.6738 9.68348 18.6273 9.61435 18.5687 9.55625Z"/>
</mask>
<path d="M12.5 14.375V17.1875C12.5 17.6019 12.3354 17.9993 12.0424 18.2924C11.7493 18.5854 11.3519 18.75 10.9375 18.75H2.8125C2.3981 18.75 2.00067 18.5854 1.70765 18.2924C1.41462 17.9993 1.25 17.6019 1.25 17.1875V2.8125C1.25 2.3981 1.41462 2.00067 1.70765 1.70765C2.00067 1.41462 2.3981 1.25 2.8125 1.25H10.9375C11.3519 1.25 11.7493 1.41462 12.0424 1.70765C12.3354 2.00067 12.5 2.3981 12.5 2.8125V5.625C12.5 5.79076 12.4342 5.94973 12.3169 6.06694C12.1997 6.18415 12.0408 6.25 11.875 6.25C11.7092 6.25 11.5503 6.18415 11.4331 6.06694C11.3158 5.94973 11.25 5.79076 11.25 5.625V2.8125C11.25 2.72962 11.2171 2.65013 11.1585 2.59153C11.0999 2.53292 11.0204 2.5 10.9375 2.5H2.8125C2.72962 2.5 2.65013 2.53292 2.59153 2.59153C2.53292 2.65013 2.5 2.72962 2.5 2.8125V17.1875C2.5 17.2704 2.53292 17.3499 2.59153 17.4085C2.65013 17.4671 2.72962 17.5 2.8125 17.5H10.9375C11.0204 17.5 11.0999 17.4671 11.1585 17.4085C11.2171 17.3499 11.25 17.2704 11.25 17.1875V14.375C11.25 14.2092 11.3158 14.0503 11.4331 13.9331C11.5503 13.8158 11.7092 13.75 11.875 13.75C12.0408 13.75 12.1997 13.8158 12.3169 13.9331C12.4342 14.0503 12.5 14.2092 12.5 14.375ZM18.5687 9.55625L15.475 6.4625C15.3573 6.34481 15.1977 6.27869 15.0312 6.27869C14.8648 6.27869 14.7052 6.34481 14.5875 6.4625C14.4698 6.58019 14.4037 6.73981 14.4037 6.90625C14.4037 7.07269 14.4698 7.23231 14.5875 7.35L16.6187 9.375H5.95C5.78424 9.375 5.62527 9.44085 5.50806 9.55806C5.39085 9.67527 5.325 9.83424 5.325 10C5.325 10.1658 5.39085 10.3247 5.50806 10.4419C5.62527 10.5592 5.78424 10.625 5.95 10.625H16.6187L14.5875 12.65C14.5289 12.7081 14.4824 12.7772 14.4507 12.8534C14.419 12.9296 14.4026 13.0112 14.4026 13.0938C14.4026 13.1763 14.419 13.2579 14.4507 13.3341C14.4824 13.4103 14.5289 13.4794 14.5875 13.5375C14.6456 13.5961 14.7147 13.6426 14.7909 13.6743C14.8671 13.706 14.9487 13.7224 15.0312 13.7224C15.1138 13.7224 15.1954 13.706 15.2716 13.6743C15.3478 13.6426 15.4169 13.5961 15.475 13.5375L18.5687 10.4437C18.6273 10.3856 18.6738 10.3165 18.7056 10.2404C18.7373 10.1642 18.7536 10.0825 18.7536 10C18.7536 9.91749 18.7373 9.8358 18.7056 9.75964C18.6738 9.68348 18.6273 9.61435 18.5687 9.55625Z" fill="black"/>
<path d="M2.8125 1.25V0.25V1.25ZM10.9375 2.5V3.5V2.5ZM2.8125 2.5V3.5V2.5ZM2.5 2.8125H3.5H2.5ZM2.5 17.1875H3.5H2.5ZM18.5687 9.55625L17.8616 10.2634L17.8645 10.2662L18.5687 9.55625ZM15.475 6.4625L16.1821 5.75539L15.475 6.4625ZM14.4037 6.90625H13.4037H14.4037ZM14.5875 7.35L13.8804 8.05711L13.8815 8.0582L14.5875 7.35ZM16.6187 9.375V10.375H19.0382L17.3248 8.6668L16.6187 9.375ZM16.6187 10.625L17.3248 11.3332L19.0382 9.625H16.6187V10.625ZM14.5875 12.65L15.2917 13.36L15.2935 13.3582L14.5875 12.65ZM14.5875 13.5375L15.2975 12.8333L15.2917 12.8275L14.5875 13.5375ZM15.475 13.5375L14.7679 12.8304L14.765 12.8333L15.475 13.5375ZM18.5687 10.4437L17.8645 9.73374L17.8616 9.73664L18.5687 10.4437ZM11.5 14.375V17.1875H13.5V14.375H11.5ZM11.5 17.1875C11.5 17.3367 11.4407 17.4798 11.3352 17.5852L12.7495 18.9995C13.23 18.5189 13.5 17.8671 13.5 17.1875H11.5ZM11.3352 17.5852C11.2298 17.6907 11.0867 17.75 10.9375 17.75V19.75C11.6171 19.75 12.2689 19.48 12.7495 18.9995L11.3352 17.5852ZM10.9375 17.75H2.8125V19.75H10.9375V17.75ZM2.8125 17.75C2.66332 17.75 2.52024 17.6907 2.41475 17.5852L1.00054 18.9995C1.4811 19.48 2.13288 19.75 2.8125 19.75V17.75ZM2.41475 17.5852C2.30926 17.4798 2.25 17.3367 2.25 17.1875H0.25C0.25 17.8671 0.519977 18.5189 1.00054 18.9995L2.41475 17.5852ZM2.25 17.1875V2.8125H0.25V17.1875H2.25ZM2.25 2.8125C2.25 2.66332 2.30926 2.52024 2.41475 2.41475L1.00054 1.00054C0.519977 1.4811 0.25 2.13288 0.25 2.8125H2.25ZM2.41475 2.41475C2.52024 2.30926 2.66332 2.25 2.8125 2.25V0.25C2.13288 0.25 1.4811 0.519977 1.00054 1.00054L2.41475 2.41475ZM2.8125 2.25H10.9375V0.25H2.8125V2.25ZM10.9375 2.25C11.0867 2.25 11.2298 2.30926 11.3352 2.41475L12.7495 1.00054C12.2689 0.519977 11.6171 0.25 10.9375 0.25V2.25ZM11.3352 2.41475C11.4407 2.52024 11.5 2.66332 11.5 2.8125H13.5C13.5 2.13288 13.23 1.4811 12.7495 1.00054L11.3352 2.41475ZM11.5 2.8125V5.625H13.5V2.8125H11.5ZM11.5 5.625C11.5 5.52555 11.5395 5.43016 11.6098 5.35983L13.024 6.77405C13.3288 6.4693 13.5 6.05597 13.5 5.625H11.5ZM11.6098 5.35983C11.6802 5.28951 11.7755 5.25 11.875 5.25V7.25C12.306 7.25 12.7193 7.0788 13.024 6.77405L11.6098 5.35983ZM11.875 5.25C11.9745 5.25 12.0698 5.28951 12.1402 5.35983L10.726 6.77405C11.0307 7.0788 11.444 7.25 11.875 7.25V5.25ZM12.1402 5.35983C12.2105 5.43016 12.25 5.52555 12.25 5.625H10.25C10.25 6.05597 10.4212 6.4693 10.726 6.77405L12.1402 5.35983ZM12.25 5.625V2.8125H10.25V5.625H12.25ZM12.25 2.8125C12.25 2.46441 12.1117 2.13057 11.8656 1.88442L10.4514 3.29864C10.3224 3.1697 10.25 2.99483 10.25 2.8125H12.25ZM11.8656 1.88442C11.6194 1.63828 11.2856 1.5 10.9375 1.5V3.5C10.7552 3.5 10.5803 3.42757 10.4514 3.29864L11.8656 1.88442ZM10.9375 1.5H2.8125V3.5H10.9375V1.5ZM2.8125 1.5C2.4644 1.5 2.13056 1.63828 1.88442 1.88442L3.29864 3.29864C3.16971 3.42757 2.99484 3.5 2.8125 3.5V1.5ZM1.88442 1.88442C1.63828 2.13056 1.5 2.4644 1.5 2.8125H3.5C3.5 2.99484 3.42757 3.16971 3.29864 3.29864L1.88442 1.88442ZM1.5 2.8125V17.1875H3.5V2.8125H1.5ZM1.5 17.1875C1.5 17.5356 1.63828 17.8694 1.88442 18.1156L3.29864 16.7014C3.42757 16.8303 3.5 17.0052 3.5 17.1875H1.5ZM1.88442 18.1156C2.13057 18.3617 2.46441 18.5 2.8125 18.5V16.5C2.99483 16.5 3.1697 16.5724 3.29864 16.7014L1.88442 18.1156ZM2.8125 18.5H10.9375V16.5H2.8125V18.5ZM10.9375 18.5C11.2856 18.5 11.6194 18.3617 11.8656 18.1156L10.4514 16.7014C10.5803 16.5724 10.7552 16.5 10.9375 16.5V18.5ZM11.8656 18.1156C12.1117 17.8694 12.25 17.5356 12.25 17.1875H10.25C10.25 17.0052 10.3224 16.8303 10.4514 16.7014L11.8656 18.1156ZM12.25 17.1875V14.375H10.25V17.1875H12.25ZM12.25 14.375C12.25 14.4745 12.2105 14.5698 12.1402 14.6402L10.726 13.226C10.4212 13.5307 10.25 13.944 10.25 14.375H12.25ZM12.1402 14.6402C12.0698 14.7105 11.9745 14.75 11.875 14.75V12.75C11.444 12.75 11.0307 12.9212 10.726 13.226L12.1402 14.6402ZM11.875 14.75C11.7755 14.75 11.6802 14.7105 11.6098 14.6402L13.024 13.226C12.7193 12.9212 12.306 12.75 11.875 12.75V14.75ZM11.6098 14.6402C11.5395 14.5698 11.5 14.4745 11.5 14.375H13.5C13.5 13.944 13.3288 13.5307 13.024 13.226L11.6098 14.6402ZM19.2759 8.84914L16.1821 5.75539L14.7679 7.16961L17.8616 10.2634L19.2759 8.84914ZM16.1821 5.75539C15.8769 5.45017 15.4629 5.27869 15.0312 5.27869L15.0312 7.27869C14.9325 7.27869 14.8377 7.23945 14.7679 7.16961L16.1821 5.75539ZM15.0312 5.27869C14.5996 5.27869 14.1856 5.45017 13.8804 5.75539L15.2946 7.16961C15.2248 7.23945 15.13 7.27869 15.0312 7.27869L15.0312 5.27869ZM13.8804 5.75539C13.5752 6.06062 13.4037 6.47459 13.4037 6.90625H15.4037C15.4037 7.00503 15.3645 7.09976 15.2946 7.16961L13.8804 5.75539ZM13.4037 6.90625C13.4037 7.33791 13.5752 7.75188 13.8804 8.05711L15.2946 6.64289C15.3645 6.71274 15.4037 6.80747 15.4037 6.90625H13.4037ZM13.8815 8.0582L15.9127 10.0832L17.3248 8.6668L15.2935 6.6418L13.8815 8.0582ZM16.6187 8.375H5.95V10.375H16.6187V8.375ZM5.95 8.375C5.51902 8.375 5.1057 8.5462 4.80095 8.85095L6.21516 10.2652C6.14484 10.3355 6.04946 10.375 5.95 10.375V8.375ZM4.80095 8.85095C4.4962 9.1557 4.325 9.56903 4.325 10H6.325C6.325 10.0995 6.28549 10.1948 6.21516 10.2652L4.80095 8.85095ZM4.325 10C4.325 10.431 4.4962 10.8443 4.80095 11.149L6.21516 9.73484C6.28549 9.80516 6.325 9.90055 6.325 10H4.325ZM4.80095 11.149C5.1057 11.4538 5.51903 11.625 5.95 11.625V9.625C6.04945 9.625 6.14484 9.66451 6.21516 9.73484L4.80095 11.149ZM5.95 11.625H16.6187V9.625H5.95V11.625ZM15.9127 9.9168L13.8815 11.9418L15.2935 13.3582L17.3248 11.3332L15.9127 9.9168ZM13.8833 11.94C13.731 12.0911 13.6101 12.2708 13.5276 12.4688L15.3738 13.238C15.3547 13.2837 15.3269 13.3251 15.2917 13.36L13.8833 11.94ZM13.5276 12.4688C13.4451 12.6668 13.4026 12.8792 13.4026 13.0938H15.4026C15.4026 13.1433 15.3928 13.1923 15.3738 13.238L13.5276 12.4688ZM13.4026 13.0938C13.4026 13.3083 13.4451 13.5207 13.5276 13.7187L15.3738 12.9495C15.3928 12.9952 15.4026 13.0442 15.4026 13.0938H13.4026ZM13.5276 13.7187C13.6101 13.9167 13.731 14.0964 13.8833 14.2475L15.2917 12.8275C15.3269 12.8624 15.3547 12.9038 15.3738 12.9495L13.5276 13.7187ZM13.8775 14.2417C14.0286 14.394 14.2083 14.5149 14.4063 14.5974L15.1755 12.7512C15.2212 12.7703 15.2626 12.7981 15.2975 12.8333L13.8775 14.2417ZM14.4063 14.5974C14.6043 14.6799 14.8167 14.7224 15.0312 14.7224V12.7224C15.0808 12.7224 15.1298 12.7322 15.1755 12.7512L14.4063 14.5974ZM15.0312 14.7224C15.2458 14.7224 15.4582 14.6799 15.6562 14.5974L14.887 12.7512C14.9327 12.7322 14.9817 12.7224 15.0312 12.7224V14.7224ZM15.6562 14.5974C15.8542 14.5149 16.0339 14.394 16.185 14.2417L14.765 12.8333C14.7999 12.7981 14.8413 12.7703 14.887 12.7512L15.6562 14.5974ZM16.1821 14.2446L19.2759 11.1509L17.8616 9.73664L14.7679 12.8304L16.1821 14.2446ZM19.273 11.1537C19.4253 11.0027 19.5461 10.823 19.6287 10.6249L17.7825 9.85578C17.8015 9.81008 17.8294 9.7686 17.8645 9.73375L19.273 11.1537ZM19.6287 10.6249C19.7112 10.4269 19.7536 10.2145 19.7536 10H17.7536C17.7536 9.9505 17.7634 9.90148 17.7825 9.85578L19.6287 10.6249ZM19.7536 10C19.7536 9.78548 19.7112 9.57309 19.6287 9.37506L17.7825 10.1442C17.7634 10.0985 17.7536 10.0495 17.7536 10H19.7536ZM19.6287 9.37506C19.5461 9.17703 19.4253 8.99731 19.273 8.84625L17.8645 10.2662C17.8294 10.2314 17.8015 10.1899 17.7825 10.1442L19.6287 9.37506Z" fill="#6D7080" mask="url(#path-1-inside-1_16_79)"/>
</svg>
