<svg width="20" height="20" viewBox="0 0 20 20" fill="none" xmlns="http://www.w3.org/2000/svg">
<path d="M5.33334 0.5H14.6667C16.2759 0.5 17.4672 0.954285 18.2564 1.74355C19.0457 2.53282 19.5 3.72407 19.5 5.33334V14.6667C19.5 16.2712 19.0459 17.4627 18.2562 18.2533C17.4667 19.0438 16.2753 19.5 14.6667 19.5H5.33334C3.71993 19.5 2.52885 19.0437 1.74065 18.2535C0.952247 17.4632 0.5 16.2718 0.5 14.6667V5.33334C0.5 3.72407 0.954285 2.53282 1.74355 1.74355C2.53282 0.954285 3.72407 0.5 5.33334 0.5Z" fill="#94C5D4" stroke="#6D7080"/>
<path d="M13.3205 10.7084H10.7495V13.257C10.7495 13.6673 10.4139 14 9.99998 14C9.58603 14 9.2505 13.6673 9.2505 13.257V10.7084H6.67955C6.29344 10.6687 6 10.3462 6 9.96131C6 9.57651 6.29344 9.25392 6.67955 9.21431H9.24243V6.67364C9.28242 6.29086 9.60778 6 9.99595 6C10.3842 6 10.7095 6.29086 10.7495 6.67364V9.21431H13.3205C13.7066 9.25392 14 9.57651 14 9.96131C14 10.3462 13.7066 10.6687 13.3205 10.7084Z" fill="#6D7080"/>
</svg>
