<svg width="87" height="87" viewBox="0 0 87 87" fill="none" xmlns="http://www.w3.org/2000/svg">
<g clip-path="url(#clip0_22_5)">
<path fill-rule="evenodd" clip-rule="evenodd" d="M9.51989 62.223L0.0424663 35.8698C-0.0936587 35.486 0.108419 35.0609 0.492185 34.9207C12.9527 30.4391 26.9935 26.271 38.996 21.1497C39.5324 20.8114 39.9532 21.1456 40.1843 21.7852L55.0751 60.1679L59.1186 71.4133C59.2547 71.7971 59.0567 72.2262 58.673 72.3625L30.1788 82.6091L19.0716 86.6039C18.6878 86.7442 18.2628 86.542 18.1226 86.1582L9.51989 62.223Z" fill="white"/>
<path fill-rule="evenodd" clip-rule="evenodd" d="M17.4212 53.4786L12.6888 25.8789C12.6186 25.4745 12.891 25.0907 13.2912 25.0206L45.8824 19.433L53.3464 18.2032C53.7549 18.0257 54.4192 18.232 54.5759 19.1441L62.6381 59.4046L64.6557 71.1824C64.7259 71.5828 64.4535 71.9706 64.0533 72.0408L34.2099 77.158L22.5746 79.1553C22.1743 79.2214 21.7865 78.949 21.7163 78.5486L17.4212 53.4786Z" fill="white"/>
<path fill-rule="evenodd" clip-rule="evenodd" d="M26.5521 45.3405V71.8755C26.5521 72.3006 26.8988 72.6513 27.3238 72.6513H39.6398H57.8727H60.4927H71.2286C71.6535 72.6513 72.0002 72.3006 72.0002 71.8755V59.4087V24.971V24.612H64.1608C63.4057 24.612 61.8378 24.7193 61.8378 23.0068L61.8212 15.3516H27.3236C26.8986 15.3516 26.552 15.6982 26.552 16.1233V22.7468V25.5488V45.3405H26.5521Z" fill="white"/>
<path fill-rule="evenodd" clip-rule="evenodd" d="M13.4726 30.4554C9.05779 31.9411 4.68422 33.4143 0.492185 34.9205C0.108419 35.0609 -0.0936587 35.4858 0.0424663 35.8696L9.51989 62.223L18.1226 86.1581C18.263 86.5418 18.6879 86.7441 19.0716 86.6037L30.1788 82.609L55.4878 73.5096L13.4726 30.4554Z" fill="#B5C4CF"/>
<path fill-rule="evenodd" clip-rule="evenodd" d="M26.5521 22.7468L13.2912 25.0205C12.891 25.0907 12.6186 25.4745 12.6888 25.8789L13.4727 30.4554L17.4214 53.4785L21.7165 78.5485C21.7866 78.9488 22.1745 79.2211 22.5747 79.1551L34.21 77.1578L55.4878 73.5097L60.4927 72.6513H57.8727L26.5521 22.7468Z" fill="#D7E7EC"/>
<path fill-rule="evenodd" clip-rule="evenodd" d="M72 59.4087V24.971V24.612V24.4923C72 24.2694 71.9051 24.2323 71.5627 23.898L63.1003 15.8262C62.7001 15.4465 62.6341 15.3516 62.3989 15.3516H61.8212H27.3236C26.8986 15.3516 26.552 15.6982 26.552 16.1233V71.8755C26.552 72.3006 26.8986 72.6513 27.3236 72.6513H71.2284C71.6534 72.6513 72 72.3006 72 71.8755V59.4087Z" fill="#EDF3F4"/>
<path fill-rule="evenodd" clip-rule="evenodd" d="M26.5521 22.7468L23.4453 23.2792V74.7272C23.4453 75.1564 23.792 75.5031 24.2169 75.5031H36.533H43.8608L55.4878 73.5099L60.4927 72.6515H57.8727H54.6503H39.6398H27.3238C26.8988 72.6515 26.5521 72.3008 26.5521 71.8757C26.5521 55.5006 26.5521 39.1216 26.5521 22.7468Z" fill="#B5C4CF"/>
<path fill-rule="evenodd" clip-rule="evenodd" d="M17.4213 53.4785L13.4726 30.4554C12.404 30.8144 11.3395 31.1734 10.2791 31.5324L10.7701 34.3923L14.7187 57.4154L19.0181 82.4854C19.084 82.8856 19.4718 83.158 19.8721 83.092L31.5074 81.0947L37.028 80.1497L53.6558 74.166L53.4578 73.8565L43.8607 75.5031L34.2101 77.1579L22.5747 79.1552C22.1745 79.2213 21.7867 78.9489 21.7165 78.5486L17.4213 53.4785Z" fill="#9AAFB7"/>
<path fill-rule="evenodd" clip-rule="evenodd" d="M72 59.4087V24.971V24.612C72 24.1952 71.8639 24.1911 71.5627 23.898L63.1003 15.8262C62.7001 15.4465 62.6341 15.3516 62.3988 15.3516H61.8211H53.2349C63.7273 29.399 64.3255 54.7207 56.5398 70.5261C56.1808 71.2607 55.8053 71.9663 55.4134 72.6513H57.8725H60.4925H71.2284C71.6534 72.6513 72 72.3006 72 71.8755V59.4087Z" fill="#D7E7EC"/>
<path fill-rule="evenodd" clip-rule="evenodd" d="M61.8375 23.0066C61.8375 24.7192 63.4053 24.6119 64.1605 24.6119H71.9999V24.4922C71.9999 24.2693 71.905 24.2322 71.5626 23.8979L63.1002 15.826C62.7 15.4464 62.634 15.3514 62.3987 15.3514H61.821L61.8375 23.0066Z" fill="white"/>
<path fill-rule="evenodd" clip-rule="evenodd" d="M71.5626 23.898L63.1002 15.8262C62.7 15.4465 62.634 15.3516 62.3987 15.3516H61.821L61.8375 23.0066C61.8375 24.7192 63.4053 24.6119 64.1605 24.6119H71.9999V24.4922C71.9999 24.2694 71.905 24.2323 71.5626 23.898Z" fill="#B5C4CF"/>
<path d="M65.0271 32.2274H33.9624C33.3624 32.2274 32.876 31.7409 32.876 31.1405C32.876 30.5402 33.3624 30.0536 33.9624 30.0536H65.0271C65.6271 30.0536 66.1135 30.5402 66.1135 31.1405C66.1135 31.7409 65.6273 32.2274 65.0271 32.2274Z" fill="#9AAFB7"/>
<g clip-path="url(#clip1_22_5)">
<path d="M288.876 542.054C430.225 542.054 544.876 427.402 544.876 286.054C544.876 144.705 430.225 30.0536 288.876 30.0536C147.527 30.0536 32.876 144.705 32.876 286.054C32.876 427.402 147.527 542.054 288.876 542.054ZM270.59 139.768C270.59 129.711 278.818 121.482 288.876 121.482C298.933 121.482 307.162 129.711 307.162 139.768V277.277L391.734 344.934C399.597 351.242 400.876 362.762 394.567 370.625C391.001 375.105 385.699 377.482 380.304 377.482C376.281 377.482 372.258 376.201 368.876 373.459L277.448 300.317C273.151 296.842 270.591 291.631 270.591 286.054V139.768H270.59Z" fill="black"/>
</g>
<path d="M65.0271 39.9484H33.9624C33.3624 39.9484 32.876 39.4619 32.876 38.8615C32.876 38.2612 33.3624 37.7747 33.9624 37.7747H65.0271C65.6271 37.7747 66.1135 38.2612 66.1135 38.8615C66.1135 39.4619 65.6273 39.9484 65.0271 39.9484Z" fill="#9AAFB7"/>
<path d="M65.0271 47.6696H33.9624C33.3624 47.6696 32.876 47.183 32.876 46.5827C32.876 45.9824 33.3624 45.4958 33.9624 45.4958H65.0271C65.6271 45.4958 66.1135 45.9824 66.1135 46.5827C66.1135 47.183 65.6273 47.6696 65.0271 47.6696Z" fill="#9AAFB7"/>
<path d="M65.0271 55.3908H33.9624C33.3624 55.3908 32.876 54.9042 32.876 54.3039C32.876 53.7035 33.3624 53.217 33.9624 53.217H65.0271C65.6271 53.217 66.1135 53.7035 66.1135 54.3039C66.1135 54.9042 65.6273 55.3908 65.0271 55.3908Z" fill="#9AAFB7"/>
<path d="M65.0271 63.1119H33.9624C33.3624 63.1119 32.876 62.6253 32.876 62.025C32.876 61.4247 33.3624 60.9381 33.9624 60.9381H65.0271C65.6271 60.9381 66.1135 61.4247 66.1135 62.025C66.1135 62.6253 65.6273 63.1119 65.0271 63.1119Z" fill="#9AAFB7"/>
<g clip-path="url(#clip2_22_5)">
<mask id="mask0_22_5" style="mask-type:luminance" maskUnits="userSpaceOnUse" x="-296" y="-321" width="683" height="683">
<path d="M-296 -321H386.667V361.667H-296V-321Z" fill="white"/>
</mask>
<g mask="url(#mask0_22_5)">
<path d="M366.667 20.3333C366.667 197.064 222.064 341.667 45.3333 341.667C-131.397 341.667 -276 197.064 -276 20.3333C-276 -156.397 -131.397 -301 45.3333 -301C222.064 -301 366.667 -156.397 366.667 20.3333Z" stroke="black" stroke-width="40" stroke-miterlimit="10" stroke-linecap="round" stroke-linejoin="round"/>
</g>
</g>
</g>
<g clip-path="url(#clip3_22_5)">
<path d="M72 30C80.2822 30 87 23.2822 87 15C87 6.71784 80.2822 0 72 0C63.7178 0 57 6.71784 57 15C57 23.2822 63.7178 30 72 30ZM70.9285 6.42858C70.9285 5.83928 71.4107 5.35712 72 5.35712C72.5893 5.35712 73.0715 5.83928 73.0715 6.42858V14.4857L78.0268 18.45C78.4876 18.8197 78.5625 19.4946 78.1929 19.9554C77.9839 20.2178 77.6732 20.3571 77.3571 20.3571C77.1214 20.3571 76.8857 20.2821 76.6875 20.1214L71.3304 15.8357C71.0786 15.6321 70.9286 15.3268 70.9286 15V6.42858H70.9285Z" fill="#6D7080"/>
</g>
<defs>
<clipPath id="clip0_22_5">
<rect width="72" height="72" fill="white" transform="translate(0 15)"/>
</clipPath>
<clipPath id="clip1_22_5">
<rect width="512" height="512" fill="white" transform="translate(32.876 30.0536)"/>
</clipPath>
<clipPath id="clip2_22_5">
<rect width="682.667" height="682.667" fill="white" transform="translate(-296 -321)"/>
</clipPath>
<clipPath id="clip3_22_5">
<rect width="30" height="30" fill="white" transform="translate(57)"/>
</clipPath>
</defs>
</svg>
